HIERARCHY
ROOT ui
{
	 OFFSET 0 0 0
	 CHANNELS 3 XPosition YPosition Z Position
	 EndSite
	 {
	 OFFSET 0 -1 0
	 }
}
ROOT li
{
	 OFFSET 0 0 0
	 CHANNELS 3 XPosition YPosition Z Position
	 EndSite
	 {
	 OFFSET 0 -1 0
	 }
}
ROOT ul
{
	 OFFSET 0 0 0
	 CHANNELS 3 XPosition YPosition Z Position
	 EndSite
	 {
	 OFFSET 0 -1 0
	 }
}
ROOT ll
{
	 OFFSET 0 0 0
	 CHANNELS 3 XPosition YPosition Z Position
	 EndSite
	 {
	 OFFSET 0 -1 0
	 }
}
ROOT tt
{
	 OFFSET 0 0 0
	 CHANNELS 3 XPosition YPosition Z Position
	 EndSite
	 {
	 OFFSET 0 -1 0
	 }
}
ROOT tb
{
	 OFFSET 0 0 0
	 CHANNELS 3 XPosition YPosition Z Position
	 EndSite
	 {
	 OFFSET 0 -1 0
	 }
}
ROOT td
{
	 OFFSET 0 0 0
	 CHANNELS 3 XPosition YPosition Z Position
	 EndSite
	 {
	 OFFSET 0 -1 0
	 }
}
ROOT v
{
	 OFFSET 0 0 0
	 CHANNELS 3 XPosition YPosition Z Position
	 EndSite
	 {
	 OFFSET 0 -1 0
	 }
}
ROOT bn
{
	 OFFSET 0 0 0
	 CHANNELS 3 XPosition YPosition Z Position
	 EndSite
	 {
	 OFFSET 0 -1 0
	 }
}
MOTION
Frames: 18
Frame Time: 0.002
0.0021975409984588625	0.0014062169790267944	0		0.5628217163085938	-2.448471435546875	0		-1.1158348388671875	0.006661994934082031	0		-0.626309326171875	-2.5232529296875	0		0.9670292358398438	-0.6038150024414063	0		2.89623779296875	-0.45512478637695314	0		4.4179501953125	-0.04685017776489258	0		5.64971240234375	0.24793438720703126	0		-0.32675531005859376	5.94344775390625	0		
0.00901802635192871	0.006906508922576904	0		0.563957275390625	-2.44704541015625	0		-1.0850291748046874	0.01111616039276123	0		-0.5610740966796876	-2.51341162109375	0		1.0375489501953126	-0.6094514770507813	0		2.911162353515625	-0.43448123168945313	0		4.43578466796875	-0.04063818740844727	0		5.65022314453125	0.24474493408203124	0		-0.3254761047363281	5.94413037109375	0		
-0.0022549788951873777	0.004675167083740234	0		0.5771408081054688	-2.445765625	0		-1.0942447509765625	0.013122506141662597	0		-0.6037454223632812	-2.500067138671875	0		1.0291962890625	-0.6069761962890625	0		2.88265625	-0.44617779541015623	0		4.43244287109375	-0.048060127258300785	0		5.64364306640625	0.24714785766601563	0		-0.32426214599609376	5.94482421875	0		
-0.02155425262451172	5.832549929618836E-4	0		0.5493397216796875	-2.44587548828125	0		-1.1056435546875	0.00216593599319458	0		-0.5635228271484375	-2.497884765625	0		1.017000732421875	-0.59440625	0		2.886380859375	-0.44226068115234374	0		4.42830224609375	-0.04138257598876953	0		5.64416796875	0.2442959442138672	0		-0.322148193359375	5.94451806640625	0		
0.001131472945213318	-0.004092327117919922	0		0.559448486328125	-2.454496826171875	0		-1.097970458984375	-0.0030603780746459963	0		-0.6610780639648437	-2.48169677734375	0		1.0176207275390625	-0.5949819946289062	0		2.890091064453125	-0.43927789306640624	0		4.43392236328125	-0.05075534439086914	0		5.6446875	0.24163385009765626	0		-0.32013870239257813	5.9442265625	0		
-0.025004985809326172	0.004968095779418946	0		0.5637562255859375	-2.4510029296875	0		-1.09724267578125	-0.0031834421157836915	0		-0.6187650146484375	-2.4775263671875	0		1.0251434326171875	-0.6016210327148438	0		2.87713427734375	-0.4129757385253906	0		4.43284814453125	-0.03793064117431641	0		5.64812109375	0.25118159484863284	0		-0.3182495422363281	5.94395166015625	0		
0.004741590023040771	0.007224565982818604	0		0.58214404296875	-2.443686767578125	0		-1.1034635009765625	0.0018011219501495362	0		-0.6582257690429687	-2.45913427734375	0		1.0188314819335937	-0.5960122680664063	0		2.89443408203125	-0.4360506896972656	0		4.43045556640625	-0.044983631134033204	0		5.645685546875	0.23693255615234374	0		-0.18317904663085938	5.9637021484375	0		
-0.018699434280395506	-7.018619775772095E-4	0		0.5524219970703125	-2.444614501953125	0		-1.063927734375	-0.007902299880981446	0		-0.5849771728515625	-2.4624228515625	0		1.0163682250976562	-0.5994170532226563	0		2.909205810546875	-0.42601068115234375	0		4.43112451171875	-0.04597361373901367	0		5.6461572265625	0.2349133605957031	0		-0.19473989868164063	5.9516396484375	0		
0.0020056459903717043	0.0027300510406494142	0		0.6025997924804688	-2.453718505859375	0		-1.0732506103515624	-0.005866767883300782	0		-0.672297607421875	-2.4372666015625	0		1.0138704833984375	-0.603777587890625	0		2.890734130859375	-0.4303909912109375	0		4.427673828125	-0.05279469299316406	0		5.643669921875	0.21938307189941406	0		-0.31340234375	5.9432333984375	0		
-0.020481468200683594	-0.0041572217941284175	0		0.5608778076171875	-2.45638720703125	0		-1.0697725830078124	-0.015022913932800292	0		-0.6230897827148437	-2.44517919921875	0		1.0113687744140625	-0.6070958862304687	0		2.88849951171875	-0.4179393310546875	0		4.43237646484375	-0.04763668823242188	0		5.6512001953125	0.21234303283691405	0		-0.3252453918457031	5.93123095703125	0		
0.009152128219604492	-0.0018231610059738159	0		0.5652727661132813	-2.45272705078125	0		-1.0921339111328126	-0.011773741722106934	0		-0.682500244140625	-2.428405517578125	0		1.0210499267578126	-0.5975612182617187	0		2.922934326171875	-0.42598651123046877	0		4.437837890625	-0.05639663696289063	0		5.65455517578125	0.22468748474121095	0		-0.29374185180664064	5.94957958984375	0		
0.013938017845153809	0.011915502548217773	0		0.5686998901367187	-2.448021240234375	0		-1.0615078125	-0.00834042739868164	0		-0.6180160522460938	-2.420538818359375	0		1.0185187377929688	-0.6008018188476563	0		2.8898271484375	-0.40291729736328125	0		4.43661962890625	-0.04295984649658203	0		5.6507861328125	0.24094793701171874	0		-0.1754384307861328	5.9615859375	0		
0.010269597053527832	-0.0021965041160583497	0		0.5619256591796875	-2.457128662109375	0		-1.07903515625	-0.013153877258300781	0		-0.6525969848632812	-2.41712060546875	0		1.0070087890625	-0.6018655395507813	0		2.8959697265625	-0.42740008544921876	0		4.4282138671875	-0.04032718658447266	0		5.64824267578125	0.22792379760742187	0		-0.3219407043457031	5.9307275390625	0		
0.010800292015075683	-0.002352833032608032	0		0.5783958740234375	-2.4515712890625	0		-1.0715845947265625	-0.01835175895690918	0		-0.6501854248046876	-2.415267333984375	0		1.007502197265625	-0.6020839233398437	0		2.8776806640625	-0.41443914794921877	0		4.4256484375	-0.046710594177246094	0		5.6486171875	0.22705642700195314	0		-0.321040771484375	5.93059228515625	0		
0.0023276309967041014	-0.0013498289585113525	0		0.5528157958984375	-2.44932958984375	0		-1.10214990234375	-0.02294593620300293	0		-0.6806842041015625	-2.407884521484375	0		1.0138866577148438	-0.6083673706054687	0		2.912945068359375	-0.4292743225097656	0		4.43101416015625	-0.05615276336669922	0		5.6489775390625	0.22632594299316405	0		-0.32022689819335937	5.93047021484375	0		
0.011796943664550781	-0.0026143879890441896	0		0.5651044921875	-2.45566357421875	0		-1.10166455078125	-0.02302271270751953	0		-0.6742034912109375	-2.40207421875	0		1.008443359375	-0.6024376831054687	0		2.879797119140625	-0.40498297119140625	0		4.4297353515625	-0.04142873764038086	0		5.656419921875	0.2202538757324219	0		-0.304339111328125	5.940123046875	0		
0.006317015171051025	0.0013718429803848266	0		0.55765576171875	-2.44466455078125	0		-1.101209228515625	-0.0230947265625	0		-0.6785874633789063	-2.387082763671875	0		1.031861083984375	-0.6039424438476563	0		2.900952392578125	-0.423514892578125	0		4.43018994140625	-0.041680862426757816	0		5.65257666015625	0.23721588134765625	0		-0.30467364501953126	5.94104052734375	0		
-0.018245576858520508	0.0026735661029815673	0		0.6058499145507813	-2.45553271484375	0		-1.0737789306640626	-0.022590641021728516	0		-0.678227294921875	-2.387160888671875	0		1.0092835083007812	-0.6026974487304687	0		2.90866064453125	-0.40479345703125	0		4.430607421875	-0.041883296966552734	0		5.64994140625	0.22481925964355468	0		-0.3041104736328125	5.94095361328125	0		
